<svg fill="none" height="128" viewBox="0 0 128 128" width="128" xmlns="http://www.w3.org/2000/svg" xmlns:xlink="http://www.w3.org/1999/xlink"><linearGradient id="a" gradientUnits="userSpaceOnUse" x1="64" x2="64" y1="128" y2="0"><stop offset="0" stop-color="#ff8585"/><stop offset="1" stop-color="#d6ecff"/></linearGradient><linearGradient id="b" gradientUnits="userSpaceOnUse" x1="65.4722" x2="65.4722" y1="32" y2="138.185"><stop offset=".610577" stop-color="#1b1658"/><stop offset="1" stop-color="#5e5d67"/></linearGradient><linearGradient id="c" gradientUnits="userSpaceOnUse" x1="70" x2="70" y1="108" y2="137.5"><stop offset="0" stop-color="#3e714c"/><stop offset="1" stop-color="#353d2e"/></linearGradient><clipPath id="d"><path d="m0 0h128v128h-128z"/></clipPath><g clip-path="url(#d)"><path d="m0 0h128v128h-128z" fill="url(#a)"/><circle cx="37.4611" cy="63.52" fill="#cc3d00" r="25.3714"/><path d="m75.7188 34c1.5396-2.6667 5.3886-2.6667 6.9282 0l58.853 103c3.079 0 1.54 2.667 0 0l-103.7279-25.274c-3.0792 0-5.0037-3.334-3.4641-6z" fill="url(#b)"/><path d="m29.2249 62.9457c1.1547-2 4.0415-2 5.1962 0l25.565 44.2803c1.1547 2 14.3233 26.274 12.0139 26.274l-83-2c-1.1547 2-2.3094 0 0 0z" fill="url(#b)"/><path d="m79.5 39 16 28-5-3.5-2 1-3 6-3.5-8-3 3-3-8.5-3 7.5-2.5-3.5-8 7z" fill="#ffefdf"/><path d="m65.5 112.5 14.5-3 16-1.5 17.5 1.5 21.5 5 8 3.5-3 19-139.5.5-3.5-19.5 14.5-7 10 3.5 30-5z" fill="url(#c)"/><path d="m90.7778 120.31-10.1111 8.69h-11.6667l17.1111-7.966-6.2222-3.62-.7778-2.173 1.5556-1.448 6.2222-3.621 10.1111-2.172-9.3333 2.897-6.2223 4.344z" fill="#21422a"/></g></svg>