<svg fill="none" height="192" viewBox="0 0 192 192" width="192" xmlns="http://www.w3.org/2000/svg" xmlns:xlink="http://www.w3.org/1999/xlink"><linearGradient id="a" gradientUnits="userSpaceOnUse" x1="96" x2="96" y1="192" y2="0"><stop offset="0" stop-color="#ff8585"/><stop offset="1" stop-color="#d6ecff"/></linearGradient><linearGradient id="b" gradientUnits="userSpaceOnUse" x1="104.671" x2="104.671" y1="30" y2="210"><stop offset=".610577" stop-color="#413442"/><stop offset="1" stop-color="#5e5d67"/></linearGradient><linearGradient id="c" gradientUnits="userSpaceOnUse" x1="113.462" x2="113.462" y1="152.051" y2="202.058"><stop offset="0" stop-color="#3e714c"/><stop offset="1" stop-color="#353d2e"/></linearGradient><clipPath id="d"><path d="m0 0h192v192h-192z"/></clipPath><g clip-path="url(#d)"><path d="m0 0h192v192h-192z" fill="url(#a)"/><ellipse cx="57.2675" cy="83.4311" fill="#cc3d00" rx="42.9362" ry="43.0084"/><path d="m122.011 33.3903c2.606-4.5204 9.12-4.5204 11.725 0l99.597 174.6007c5.211 0 2.606 4.52 0 0l-175.5391-42.844c-5.211 0-8.4679-5.65-5.8624-10.171z" fill="url(#b)"/><path d="m43.3293 82.4576c1.9541-3.3903 6.8394-3.3903 8.7935 0l43.2639 75.0614c1.9541 3.39 24.2393 44.539 20.3313 44.539l-140.4616-3.39c-1.9541 3.39-3.9082 0 0 0z" fill="url(#b)"/><path d="m128.41 41.8661c1.975 0 27.077 47.4642 27.077 47.4642l-8.461-5.933-3.385 1.6951-5.077 10.1709-5.923-13.5612-5.077 5.0855-5.077-14.4088-5.077 12.7136-4.231-5.933-13.538 11.8661s26.795-49.1594 28.769-49.1594z" fill="#ffefdf"/><path d="m105.846 159.679 24.539-5.085 27.077-2.543 29.615 2.543 36.385 8.475 13.538 5.933-5.077 32.208-236.07684.848-5.92306-33.056 24.5384-11.866 16.9231 5.933 50.7693-8.475z" fill="url(#c)"/><path d="m141.855 172.071-17.111 23.206h-26.5132l35.5382-22.037-10.342-6.079-1.316-3.682 2.633-2.455 10.53-6.138 19.649-2.835h.846l-19.179 4.062-10.53 7.366z" fill="#21422a"/></g></svg>