<svg fill="none" height="128" viewBox="0 0 128 128" width="128" xmlns="http://www.w3.org/2000/svg" xmlns:xlink="http://www.w3.org/1999/xlink"><linearGradient id="a" gradientUnits="userSpaceOnUse" x1="64" x2="64" y1="128" y2="0"><stop offset="0" stop-color="#ff8585"/><stop offset="1" stop-color="#d6ecff"/></linearGradient><clipPath id="b"><path d="m0 0h128v128h-128z"/></clipPath><g clip-path="url(#b)"><path d="m0 0h128v128h-128z" fill="url(#a)"/><circle cx="37.4611" cy="63.52" fill="#cc3d00" r="25.3714"/><path d="m75.7188 34c1.5396-2.6667 5.3886-2.6667 6.9282 0l41.411 71.726c1.539 2.666-.385 6-3.464 6h-82.8219c-3.0792 0-5.0037-3.334-3.4641-6z" fill="#0a0727"/><path d="m79.5 39 16 28-5-3.5-2 1-3 6-3.5-8-3 3-3-8.5-3 7.5-2.5-3.5-8 7z" fill="#ffefdf"/><path d="m29.2249 62.9457c1.1547-2 4.0415-2 5.1962 0l25.565 44.2803c1.1547 2-.2887 4.5-2.5981 4.5h-51.13005c-2.3094 0-3.75278-2.5-2.59808-4.5z" fill="#0a0727"/><path d="m63.5 102.5 16.5 3 18-5 15 5 19 2 8 3.5-3 19-139.50001.5-3.5-19.5 10.50001-4 23 1.5 23.5-3z" fill="#447150"/><path d="m62.5 118 14.5-3 16-1.5 17.5 1.5 21.5 5 8 3.5-3 19-139.5.5-3.5-19.5 14.5-7 10 3.5 30-5z" fill="#294430"/><path d="m83 122.793-6.5 6.207h-7.5l11-5.69-4-2.586-.5-1.552 1-1.034 4-2.586 6.5-1.552-6 2.069-4 3.103z" fill="#3b6647"/></g></svg>
